<?xml version="1.0" standalone="no"?>
<!DOCTYPE svg PUBLIC "-//W3C//DTD SVG 20010904//EN"
 "http://www.w3.org/TR/2001/REC-SVG-20010904/DTD/svg10.dtd">
<svg version="1.0" xmlns="http://www.w3.org/2000/svg"
 width="132.000000pt" height="132.000000pt" viewBox="0 0 132.000000 132.000000"
 preserveAspectRatio="xMidYMid meet">

<g transform="translate(0.000000,132.000000) scale(0.100000,-0.100000)"
fill="#000000" stroke="none">
<path d="M460 1227 c-95 -32 -157 -72 -231 -148 -113 -115 -169 -259 -169
-434 0 -188 61 -329 197 -461 98 -95 231 -144 390 -144 205 0 378 100 486 282
53 89 78 176 84 289 16 290 -156 546 -416 623 -85 25 -259 21 -341 -7z m322
-224 c10 -9 18 -24 18 -33 0 -17 4 -17 50 -3 27 8 64 13 82 11 28 -2 33 -7 33
-28 0 -22 -5 -25 -43 -28 l-43 -3 40 -44 c22 -23 44 -60 50 -81 31 -110 -1
-177 -145 -311 -58 -54 -121 -121 -141 -151 -21 -29 -39 -49 -41 -43 -6 19 57
124 133 221 92 116 115 162 115 224 0 42 -5 53 -35 83 -33 33 -39 35 -81 30
-38 -4 -54 -13 -95 -53 -28 -28 -49 -42 -49 -33 0 20 38 89 65 119 21 22 22
27 9 44 -19 27 -18 52 6 76 24 24 47 25 72 3z m-223 -98 c29 -15 85 -74 77
-82 -2 -2 -21 5 -42 16 -132 71 -252 -63 -184 -204 11 -22 57 -83 103 -136 72
-81 127 -159 114 -159 -14 0 -262 252 -277 280 -41 80 -34 153 19 227 48 66
127 91 190 58z"/>
</g>
</svg>
